<svg width="20" height="17" viewBox="0 0 20 17" fill="none" xmlns="http://www.w3.org/2000/svg">
<path fill-rule="evenodd" clip-rule="evenodd" d="M12.3291 17.0004C12.2621 17.0004 12.1931 16.9974 12.1241 16.9904C11.2441 16.9034 10.5541 16.2824 10.3641 15.4074L7.68112 3.01542L4.91812 9.39742C4.75912 9.76342 4.39812 10.0004 4.00012 10.0004H1.00012C0.447122 10.0004 0.00012207 9.55242 0.00012207 9.00042C0.00012207 8.44742 0.447122 8.00042 1.00012 8.00042H3.34412L5.85012 2.21142C6.20512 1.39542 6.98712 0.920425 7.87612 1.00942C8.75612 1.09642 9.44612 1.71742 9.63612 2.59242L12.3191 14.9844L15.0821 8.60242C15.2411 8.23642 15.6011 8.00042 16.0001 8.00042H19.0001C19.5531 8.00042 20.0001 8.44742 20.0001 9.00042C20.0001 9.55242 19.5531 10.0004 19.0001 10.0004H16.6561L14.1501 15.7884C13.8231 16.5414 13.1221 17.0004 12.3291 17.0004Z" fill="#757D8A"/>
</svg>
