<svg width="18" height="20" viewBox="0 0 18 20" fill="none" xmlns="http://www.w3.org/2000/svg">
<path fill-rule="evenodd" clip-rule="evenodd" d="M15.9902 18H13.0002V11C13.0002 10.447 12.5522 9.99996 12.0002 9.99996H6.00024C5.44724 9.99996 5.00024 10.447 5.00024 11V18H2.00024L2.00624 9.58296L8.99824 2.43196L16.0002 9.62396L15.9902 18ZM7.00024 18H11.0002V12H7.00024V18ZM17.4242 8.18496L9.71524 0.300957C9.33824 -0.084043 8.66224 -0.084043 8.28524 0.300957L0.575244 8.18596C0.210244 8.56096 0.000244141 9.08496 0.000244141 9.62396V18C0.000244141 19.103 0.847244 20 1.88824 20H6.00024H12.0002H16.1112C17.1522 20 18.0002 19.103 18.0002 18V9.62396C18.0002 9.08496 17.7902 8.56096 17.4242 8.18496Z" fill="#5A6474"/>
</svg>
