<svg width="18" height="18" viewBox="0 0 18 18" fill="none" xmlns="http://www.w3.org/2000/svg">
<path fill-rule="evenodd" clip-rule="evenodd" d="M7.56055 5.43938C8.14655 6.02438 8.14655 6.97538 7.56055 7.56038C6.97455 8.14638 6.02555 8.14638 5.43955 7.56038C4.85355 6.97538 4.85355 6.02438 5.43955 5.43938C6.02555 4.85338 6.97455 4.85338 7.56055 5.43938ZM2.83405 9.89148L8.86605 15.9245L15.924 8.86648L9.89205 2.83348L2.10705 2.10748L2.83405 9.89148ZM8.86605 17.9985C8.40105 17.9985 7.93705 17.8215 7.58205 17.4685L1.16505 11.0505C1.00005 10.8865 0.898048 10.6685 0.876048 10.4365L0.00404822 1.09248C-0.0229518 0.796483 0.0820482 0.503483 0.293048 0.292483C0.504048 0.0814829 0.796048 -0.0255171 1.09305 0.00448292L10.437 0.876483C10.669 0.897483 10.886 0.999483 11.051 1.16448L17.468 7.58148C17.811 7.92448 18 8.38048 18 8.86648C18 9.35248 17.811 9.80848 17.468 10.1515L10.151 17.4675C9.79705 17.8215 9.33205 17.9985 8.86605 17.9985Z" fill="#757D8A"/>
</svg>
